<?xml version="1.0" encoding="utf-8"?>
<!-- Generator: Adobe Illustrator 17.1.0, SVG Export Plug-In . SVG Version: 6.00 Build 0)  -->
<!DOCTYPE svg PUBLIC "-//W3C//DTD SVG 1.1//EN" "http://www.w3.org/Graphics/SVG/1.1/DTD/svg11.dtd">
<svg version="1.1" id="Layer_1" xmlns="http://www.w3.org/2000/svg" xmlns:xlink="http://www.w3.org/1999/xlink" x="0px" y="0px"
	 viewBox="0 0 800 600" enable-background="new 0 0 800 600" xml:space="preserve">
<g>
	<g>
		<path fill="#231F20" d="M105.9,333.1v-13.7l39-7.7v18.7c0,14.3,6.3,20.4,17.4,20.4c9.3,0,17-4.3,17-19.4v-7.3c0-13-6-22.7-29-43.4
			c-31.7-28.7-42.7-48.1-42.7-73.8v-5.7c0-35,21-53.7,55.1-53.7c34,0,55.4,19.7,55.4,54.7v5.3l-39,7.3v-10c0-15-5.7-20.4-16-20.4
			c-9,0-15,4.3-15,16v5c0,11.7,5.7,21.4,28.7,42c31.7,28.4,43,47.7,43,75.4v11c0,35-23,53.7-56.7,53.7
			C129,387.9,105.9,368.2,105.9,333.1z"/>
	</g>
	<g>
		<polygon fill="#231F20" points="348.2,150.9 299.2,150.9 257.8,384.5 298.2,384.5 305,338.3 305,338.3 323.5,210.3 340.8,332.5 
			340.9,332.5 348.5,384.5 389.6,384.5 		"/>
	</g>
	<g>
		<path fill="#231F20" d="M493.7,188.6v195.9h-40.4V188.6h-37.7v-37.7h115.8v37.7H493.7z"/>
	</g>
	<g>
		<path fill="#231F20" d="M580.1,330.8V150.9h39v178.9c0,15.7,6.7,20.4,17.4,20.4c10.7,0,17.7-4.7,17.7-20.4V150.9h40.4v179.9
			c0,37.4-22.4,57.1-57.7,57.1C602.2,387.9,580.1,368.2,580.1,330.8z"/>
	</g>
	<g>
		<g>
			<path fill="#231F20" d="M106.6,411.2c-0.7-0.6-1-1.4-1-2.3c0-0.9,0.3-1.6,1-2.3c0.7-0.7,1.5-1,2.5-1c1,0,1.8,0.3,2.5,1
				c0.7,0.7,1,1.4,1,2.3c0,0.9-0.3,1.6-1,2.3c-0.7,0.6-1.5,1-2.5,1C108.1,412.2,107.3,411.9,106.6,411.2z M111.6,451.7h-4.9v-32.2
				h4.9V451.7z"/>
		</g>
		<g>
			<path fill="#231F20" d="M176.8,420.4c1.9,1.1,3.4,2.6,4.5,4.7c1,2.1,1.6,4.5,1.6,7.4v19.2h-5v-18.4c0-3.2-0.8-5.6-2.3-7.3
				c-1.6-1.7-3.8-2.5-6.7-2.5c-1.8,0-3.5,0.4-5,1.3c-1.5,0.9-2.7,2.1-3.6,3.6c-0.9,1.5-1.3,3.3-1.3,5.2v18.2h-4.9v-32.2h4.7v4.3
				c1.2-1.5,2.8-2.7,4.8-3.7c2-0.9,4.1-1.4,6.4-1.4C172.6,418.8,174.9,419.4,176.8,420.4z"/>
		</g>
		<g>
			<path fill="#231F20" d="M246.8,420.4c1.9,1.1,3.4,2.6,4.5,4.7c1,2.1,1.6,4.5,1.6,7.4v19.2h-5v-18.4c0-3.2-0.8-5.6-2.3-7.3
				c-1.6-1.7-3.8-2.5-6.7-2.5c-1.8,0-3.5,0.4-5,1.3c-1.5,0.9-2.7,2.1-3.6,3.6c-0.9,1.5-1.3,3.3-1.3,5.2v18.2h-4.9v-32.2h4.7v4.3
				c1.2-1.5,2.8-2.7,4.8-3.7c2-0.9,4.1-1.4,6.4-1.4C242.5,418.8,244.9,419.4,246.8,420.4z"/>
		</g>
		<g>
			<path fill="#231F20" d="M300,450.3c-2.6-1.5-4.6-3.5-6.1-6.1c-1.5-2.6-2.2-5.4-2.2-8.5c0-3.1,0.7-5.9,2.2-8.5
				c1.5-2.6,3.5-4.6,6.1-6.1c2.6-1.5,5.4-2.3,8.5-2.3c3.1,0,5.9,0.7,8.5,2.3c2.6,1.5,4.6,3.5,6.1,6.1c1.5,2.6,2.2,5.4,2.2,8.5
				c0,3.1-0.8,5.9-2.3,8.5c-1.5,2.6-3.6,4.6-6.1,6.1c-2.6,1.5-5.4,2.2-8.5,2.2C305.3,452.6,302.5,451.8,300,450.3z M314.5,446.3
				c1.8-1.1,3.3-2.5,4.3-4.4c1.1-1.9,1.6-3.9,1.6-6.2c0-2.3-0.5-4.3-1.6-6.2c-1.1-1.9-2.5-3.4-4.3-4.4c-1.8-1.1-3.8-1.6-6-1.6
				c-2.2,0-4.2,0.5-6,1.6c-1.8,1.1-3.3,2.6-4.3,4.4c-1.1,1.9-1.6,4-1.6,6.2c0,2.3,0.5,4.3,1.6,6.2c1.1,1.9,2.5,3.3,4.3,4.4
				c1.8,1.1,3.8,1.6,6,1.6C310.7,448,312.6,447.4,314.5,446.3z"/>
		</g>
		<g>
			<path fill="#231F20" d="M378.3,451.7h-4.9l-13.6-32.2h5.4l10.7,26.6l10.6-26.6h5.4L378.3,451.7z"/>
		</g>
		<g>
			<path fill="#231F20" d="M452.9,419.5h5v32.2H453v-5.2c-1.3,1.8-2.9,3.3-4.8,4.4c-1.9,1.1-4.1,1.6-6.5,1.6c-3,0-5.6-0.7-8-2.2
				c-2.4-1.5-4.2-3.5-5.5-6.1c-1.3-2.6-2-5.4-2-8.5c0-3.1,0.7-5.9,2-8.5c1.3-2.6,3.2-4.6,5.6-6.1c2.4-1.5,5-2.2,7.9-2.2
				c2.4,0,4.6,0.5,6.4,1.5c1.9,1,3.4,2.4,4.7,4.2V419.5z M447.9,446.2c1.7-1,3-2.5,3.9-4.3c0.9-1.8,1.4-3.9,1.4-6.2
				c0-2.3-0.5-4.4-1.4-6.2c-0.9-1.9-2.3-3.3-3.9-4.4c-1.7-1.1-3.6-1.6-5.8-1.6c-2.1,0-4,0.5-5.7,1.6c-1.7,1.1-2.9,2.5-3.9,4.4
				c-0.9,1.9-1.4,3.9-1.4,6.2c0,2.3,0.5,4.4,1.4,6.2c0.9,1.8,2.2,3.3,3.8,4.3c1.6,1,3.6,1.6,5.7,1.6
				C444.3,447.8,446.2,447.3,447.9,446.2z"/>
		</g>
		<g>
			<path fill="#231F20" d="M506.1,451.7h-5V424h-5.6v-4.5h5.6v-8l5-1v9h8.3v4.5h-8.3V451.7z"/>
		</g>
		<g>
			<path fill="#231F20" d="M551.6,411.2c-0.7-0.6-1-1.4-1-2.3c0-0.9,0.3-1.6,1-2.3c0.7-0.7,1.5-1,2.5-1c1,0,1.8,0.3,2.5,1
				c0.7,0.7,1,1.4,1,2.3c0,0.9-0.3,1.6-1,2.3c-0.7,0.6-1.5,1-2.5,1C553,412.2,552.2,411.9,551.6,411.2z M556.5,451.7h-4.9v-32.2h4.9
				V451.7z"/>
		</g>
		<g>
			<path fill="#231F20" d="M612.8,451.7h-4.9l-13.6-32.2h5.4l10.7,26.6l10.6-26.6h5.4L612.8,451.7z"/>
		</g>
		<g>
			<path fill="#231F20" d="M665.7,437.4c0.3,2.1,0.9,3.9,2,5.5c1.1,1.6,2.4,2.8,4.1,3.7c1.6,0.9,3.5,1.3,5.4,1.3
				c1.9,0,3.6-0.3,5.2-1c1.6-0.7,3-1.6,4.2-2.7l2.6,3.5c-1.6,1.5-3.5,2.6-5.5,3.5c-2.1,0.8-4.3,1.2-6.8,1.2c-3,0-5.7-0.7-8.2-2.2
				c-2.5-1.5-4.4-3.5-5.8-6.1c-1.4-2.6-2.1-5.4-2.1-8.4c0-3.1,0.7-5.9,2-8.5c1.3-2.6,3.1-4.6,5.4-6.1c2.3-1.5,4.9-2.3,7.8-2.3
				c3,0,5.7,0.7,8,2.2c2.3,1.4,4.1,3.4,5.3,6c1.2,2.5,1.9,5.4,1.9,8.6c0,0.6,0,1.2-0.1,1.8H665.7z M671.3,424.6
				c-1.5,0.8-2.7,1.9-3.6,3.4c-1,1.5-1.6,3.1-1.9,5h20.3c-0.3-1.9-0.9-3.6-1.8-5.1c-0.9-1.4-2-2.6-3.4-3.4c-1.4-0.8-3-1.2-4.7-1.2
				C674.4,423.4,672.8,423.8,671.3,424.6z"/>
		</g>
	</g>
	<g>
		<path fill="#FCB813" d="M271,308.2c0,0,84.8-45.3,157.7-54.2c0,0-124.3,48.5-164.4,93"/>
	</g>
</g>
</svg>
