<svg id="Ebene_1" data-name="Ebene 1" xmlns="http://www.w3.org/2000/svg" xmlns:xlink="http://www.w3.org/1999/xlink" viewBox="0 0 1051.1371 198.9738"><defs><clipPath id="clip-path" transform="translate(-0.0008 -0.0023)"><rect width="1051.1388" height="198.9738" style="fill:none"/></clipPath></defs><title>FireDos_Logo</title><polygon points="42.559 2.383 0 195.495 41.11 195.495 58.773 115.585 151.994 115.585 160.105 79.397 66.877 79.397 75.858 38.572 171.105 38.572 179.216 2.383 42.559 2.383" style="fill:#e30613"/><polygon points="191.651 55.654 160.67 195.5 197.444 195.5 228.425 55.654 191.651 55.654" style="fill:#e30613"/><g style="clip-path:url(#clip-path)"><path d="M230.7267,195.4983,261.7078,55.6597h36.766l-4.3445,18.2405c12.4557-13.3183,27.5072-21.7145,49.7993-21.7145l-8.1034,36.481a56.54394,56.54394,0,0,0-13.3183-1.7409c-13.6111,0-26.6367,7.5257-34.7479,16.7923l-20.2663,91.7802Z" transform="translate(-0.0008 -0.0023)" style="fill:#e30613"/><path d="M448.4348,112.4055v-2.8963c0-13.8961-9.8444-28.0848-32.1366-28.0848-19.6886,0-34.7478,15.6369-37.9291,30.9811ZM337.8364,136.1458c0-45.4548,34.1624-83.9616,80.7804-83.9616,35.6028,0,62.8249,23.4553,62.8249,62.5399,0,8.1034-1.4481,17.9477-2.8963,22.5772H374.6024v3.474c0,11.8702,12.4556,28.9552,38.2218,28.9552,12.1552,0,44.5074-7.1868,53.1963-13.8421l-6.871,32.8452c-13.0641,6.7631-31.5588,10.2372-48.9288,10.2372-44.0145,0-72.3843-23.7404-72.3843-62.825" transform="translate(-0.0008 -0.0023)" style="fill:#e30613"/><path d="M573.2056,159.31c46.6104,0,74.6952-32.7142,74.6952-71.2288,0-28.077-19.9737-49.5065-48.6362-49.5065H565.6799L539.0433,159.31h34.1623Zm-83.3839,36.1883L532.3803,2.3864h74.6951c42.8513,0,83.6766,33.007,83.6766,83.0913,0,50.6697-34.4551,110.0206-125.0721,110.0206Z" transform="translate(-0.0008 -0.0023)" style="fill:#e30613"/><path d="M812.9079,117.618c0-20.2663-12.1553-32.7142-32.4293-32.7142-24.8958,0-41.6881,23.7404-41.6881,48.6362,0,20.2663,12.1629,32.7142,32.7142,32.7142,24.6108,0,41.4032-23.4477,41.4032-48.6362M700.8614,135.5658c0-43.714,33.5846-83.384,80.7804-83.384,44.5921,0,69.4879,27.2221,69.4879,63.6954,0,43.429-33.5924,83.0989-81.0731,83.0989-44.5844,0-69.1952-26.9293-69.1952-63.4103" transform="translate(-0.0008 -0.0023)" style="fill:#e30613"/><path d="M866.8813,186.0391l7.3871-35.4025c8.1111,9.8443,28.6625,20.5436,48.9289,20.5436,12.4555,0,20.274-7.2407,20.274-14.7665,0-20.559-70.9361-15.0514-70.9361-57.04,0-24.3181,20.2664-47.188,57.6178-47.188,23.7327,0,33.5076,3.4663,48.2664,12.5326L973.1891,93.635c-6.663-8.6811-26.5365-13.3645-43.6138-13.3645-13.0333,0-20.2741,6.3626-20.2741,13.6033,0,17.6628,70.913,13.6111,70.9361,56.1696.0154,20.7748-18.3329,48.9289-60.5141,48.9289-25.4735,0-36.2267-2.3186-52.8419-12.9332" transform="translate(-0.0008 -0.0023)" style="fill:#e30613"/></g><polygon points="203.894 2.307 196.176 38.118 232.88 38.118 240.599 2.307 203.894 2.307" style="fill:#e30613"/><g style="clip-path:url(#clip-path)"><path d="M1024.6784,17.5881H1016.39l-2.904,12.5018h9.4438c4.7989,0,7.9957-3.1967,7.9957-7.1252,0-3.1967-2.18-5.3766-6.2471-5.3766m.4391,30.9657-6.1084-13.9577h-6.3934l-3.0581,13.9577H1004.62l7.7029-35.3256h13.3723c6.1084,0,10.4682,3.9208,10.4682,9.3051a12.11611,12.11611,0,0,1-11.6313,11.9165l6.3934,14.104Zm-4.9452-43.9066A25.93634,25.93634,0,0,0,994.1518,30.814a26.02358,26.02358,0,0,0,26.0205,26.1668,26.368,26.368,0,0,0,26.313-26.1668,26.278,26.278,0,0,0-26.313-26.1668m0,56.9861a30.81568,30.81568,0,1,1,30.9656-30.8193,30.71139,30.71139,0,0,1-30.9656,30.8193" transform="translate(-0.0008 -0.0023)" style="fill:#e30613"/></g></svg>