<svg width="40" height="41" viewBox="0 0 40 41" fill="none" xmlns="http://www.w3.org/2000/svg">
<path d="M26.1096 6.97981C25.6652 5.40453 24.2174 4.25 22.5 4.25H17.5C15.7826 4.25 14.3348 5.40453 13.8904 6.97981M26.1096 6.97981C26.2011 7.30417 26.25 7.64637 26.25 8V8C26.25 8.69036 25.6904 9.25 25 9.25H15C14.3096 9.25 13.75 8.69036 13.75 8V8C13.75 7.64637 13.7989 7.30417 13.8904 6.97981M26.1096 6.97981C27.1865 7.06114 28.2576 7.16379 29.3222 7.28735C31.1565 7.50023 32.5 9.08167 32.5 10.9283V33C32.5 35.0711 30.8211 36.75 28.75 36.75H11.25C9.17893 36.75 7.5 35.0711 7.5 33V10.9283C7.5 9.08167 8.84347 7.50023 10.6778 7.28735C11.7424 7.16379 12.8135 7.06114 13.8904 6.97981" stroke="black" stroke-width="2.5" stroke-linecap="round" stroke-linejoin="round"/>
</svg>
